<svg xmlns="http://www.w3.org/2000/svg" width="1600" height="1032.8" viewBox="0 0 1600 1032.8" role="img">
<rect width="1600" height="1032.8" opacity="1" fill="#FFFFFF"/>
<defs><marker id="marker-0529b66119d9" viewBox="0 0 10 10" refX="9" refY="5" markerWidth="10" markerHeight="10" orient="auto"><path d="M0 0L10 5L0 10L0 0" fill="#4B5563"/></marker><marker id="marker-ef661f95c454" viewBox="0 0 8 8" refX="8" refY="4" markerWidth="8" markerHeight="8" orient="auto"><path d="M4 0Q8 0 8 4Q8 8 4 8Q0 8 0 4Q0 0 4 0" fill="#4B5563"/></marker><clipPath id="clip-actual:firmware:firmware"><rect x="602.048" y="237.6" width="418.24" height="14.4" rx="3.6" ry="3.6"/></clipPath><clipPath id="clip-actual:performance:performance"><path d="M1114.507 473.6L1264.032 473.6L1271.232 480.8L1264.032 488L1114.507 488Q1110.907 488 1110.907 484.4L1110.907 477.2Q1110.907 473.6 1114.507 473.6"/></clipPath><clipPath id="clip-actual:silicon-bringup:silicon-bringup"><rect x="1069.083" y="309.6" width="146.384" height="14.4" rx="3.6" ry="3.6"/></clipPath></defs>
<path data-scene-id="legend-swatch:planned" data-source-ref="planned" data-purpose="legend-swatch" d="M936.047 840.046L940.139 840.356L944.192 840.084L943.84 844.138L943.808 848.938L943.819 853.738L944.049 858.538L944.576 862.976L940.139 863.203L935.271 863.405L935.287 858.538L935.55 853.738L935.901 848.938L936.209 844.138Z" opacity="1" fill="#3986E6" stroke="#172033" stroke-width="1"/>
<path data-scene-id="legend-swatch:actual" data-source-ref="actual" data-purpose="legend-swatch" d="M937.673 868.421L942.6 868.477L943.869 868.697L944.916 869.36L945.536 870.423L945.699 871.684L945.553 876.538L945.432 881.373L945.239 882.548L944.669 883.468L943.743 884.022L942.571 884.194L937.702 884.25L936.509 884.094L935.543 883.534L934.939 882.583L934.726 881.382L934.576 876.538L934.459 871.675L934.641 870.387L935.296 869.295L936.382 868.625Z" opacity="1" fill="#269D79" stroke="#172033" stroke-width="1"/>
<rect data-scene-id="group:fw-team" data-source-ref="fw-team" data-purpose="group-decoration" x="506.4" y="116.8" width="1069.6" height="236" opacity="1" fill="#EEF3F8"/>
<rect data-scene-id="group:validation-team" data-source-ref="validation-team" data-purpose="group-decoration" x="506.4" y="352.8" width="1069.6" height="236" opacity="1" fill="#EEF3F8"/>
<rect data-scene-id="group:factory-team" data-source-ref="factory-team" data-purpose="group-decoration" x="506.4" y="588.8" width="1069.6" height="164" opacity="1" fill="#EEF3F8"/>
<rect data-scene-id="row-band:architecture" data-source-ref="architecture" data-purpose="row-decoration" x="24" y="136.8" width="458.4" height="72" opacity="1" fill="#EEF3F8"/>
<rect data-scene-id="row-band:silicon-bringup" data-source-ref="silicon-bringup" data-purpose="row-decoration" x="24" y="280.8" width="458.4" height="72" opacity="1" fill="#EEF3F8"/>
<rect data-scene-id="row-band:performance" data-source-ref="performance" data-purpose="row-decoration" x="24" y="444.8" width="458.4" height="72" opacity="1" fill="#EEF3F8"/>
<rect data-scene-id="row-band:pvt" data-source-ref="pvt" data-purpose="row-decoration" x="24" y="608.8" width="458.4" height="72" opacity="1" fill="#EEF3F8"/>
<rect data-scene-id="axis-band-rect:0:0" data-source-ref="timeline-axis" data-purpose="axis-band" x="506.4" y="68.8" width="423.269" height="48" opacity="1" fill="#C9CED8"/>
<rect data-scene-id="axis-band-rect:0:1" data-source-ref="timeline-axis" data-purpose="axis-band" x="929.669" y="68.8" width="646.331" height="48" opacity="1" fill="#C9CED8"/>
<path data-scene-id="axis-grid:1:0" data-source-ref="timeline-axis" data-purpose="axis-grid" d="M518.4 116.8L518.4 752.8" opacity="1" fill="none" stroke="#C9CED8" stroke-width="1"/>
<path data-scene-id="axis-grid:1:1" data-source-ref="timeline-axis" data-purpose="axis-grid" d="M929.669 116.8L929.669 752.8" opacity="1" fill="none" stroke="#C9CED8" stroke-width="1"/>
<path data-scene-id="axis-grid:4:0" data-source-ref="timeline-axis" data-purpose="axis-grid" d="M518.4 116.8L518.4 752.8" opacity="1" fill="none" stroke="#EAF0F8" stroke-width="1"/>
<path data-scene-id="axis-grid:4:1" data-source-ref="timeline-axis" data-purpose="axis-grid" d="M713.579 116.8L713.579 752.8" opacity="1" fill="none" stroke="#EAF0F8" stroke-width="1"/>
<path data-scene-id="axis-grid:4:2" data-source-ref="timeline-axis" data-purpose="axis-grid" d="M929.669 116.8L929.669 752.8" opacity="1" fill="none" stroke="#EAF0F8" stroke-width="1"/>
<path data-scene-id="axis-grid:4:3" data-source-ref="timeline-axis" data-purpose="axis-grid" d="M1138.789 116.8L1138.789 752.8" opacity="1" fill="none" stroke="#EAF0F8" stroke-width="1"/>
<path data-scene-id="axis-grid:4:4" data-source-ref="timeline-axis" data-purpose="axis-grid" d="M1354.88 116.8L1354.88 752.8" opacity="1" fill="none" stroke="#EAF0F8" stroke-width="1"/>
<rect data-scene-id="calendar-closed:2026-02-01" data-source-ref="project-calendar" data-purpose="calendar-closed" x="506.4" y="116.8" width="18.971" height="636" opacity="1" fill="none" stroke="#C9CED8" stroke-width="1"/>
<rect data-scene-id="calendar-closed:2026-02-07" data-source-ref="project-calendar" data-purpose="calendar-closed" x="560.224" y="116.8" width="6.971" height="636" opacity="1" fill="none" stroke="#C9CED8" stroke-width="1"/>
<rect data-scene-id="calendar-closed:2026-02-08" data-source-ref="project-calendar" data-purpose="calendar-closed" x="567.195" y="116.8" width="6.971" height="636" opacity="1" fill="none" stroke="#C9CED8" stroke-width="1"/>
<rect data-scene-id="calendar-closed:2026-02-11" data-source-ref="project-calendar" data-purpose="calendar-closed" x="588.107" y="116.8" width="6.971" height="636" opacity="1" fill="none" stroke="#C9CED8" stroke-width="1"/>
<rect data-scene-id="calendar-closed:2026-02-14" data-source-ref="project-calendar" data-purpose="calendar-closed" x="609.019" y="116.8" width="6.971" height="636" opacity="1" fill="none" stroke="#C9CED8" stroke-width="1"/>
<rect data-scene-id="calendar-closed:2026-02-15" data-source-ref="project-calendar" data-purpose="calendar-closed" x="615.989" y="116.8" width="6.971" height="636" opacity="1" fill="none" stroke="#C9CED8" stroke-width="1"/>
<rect data-scene-id="calendar-closed:2026-02-21" data-source-ref="project-calendar" data-purpose="calendar-closed" x="657.813" y="116.8" width="6.971" height="636" opacity="1" fill="none" stroke="#C9CED8" stroke-width="1"/>
<rect data-scene-id="calendar-closed:2026-02-22" data-source-ref="project-calendar" data-purpose="calendar-closed" x="664.784" y="116.8" width="6.971" height="636" opacity="1" fill="none" stroke="#C9CED8" stroke-width="1"/>
<rect data-scene-id="calendar-closed:2026-02-28" data-source-ref="project-calendar" data-purpose="calendar-closed" x="706.608" y="116.8" width="6.971" height="636" opacity="1" fill="none" stroke="#C9CED8" stroke-width="1"/>
<rect data-scene-id="calendar-closed:2026-03-01" data-source-ref="project-calendar" data-purpose="calendar-closed" x="713.579" y="116.8" width="6.971" height="636" opacity="1" fill="none" stroke="#C9CED8" stroke-width="1"/>
<rect data-scene-id="calendar-closed:2026-03-07" data-source-ref="project-calendar" data-purpose="calendar-closed" x="755.403" y="116.8" width="6.971" height="636" opacity="1" fill="none" stroke="#C9CED8" stroke-width="1"/>
<rect data-scene-id="calendar-closed:2026-03-08" data-source-ref="project-calendar" data-purpose="calendar-closed" x="762.373" y="116.8" width="6.971" height="636" opacity="1" fill="none" stroke="#C9CED8" stroke-width="1"/>
<rect data-scene-id="calendar-closed:2026-03-14" data-source-ref="project-calendar" data-purpose="calendar-closed" x="804.197" y="116.8" width="6.971" height="636" opacity="1" fill="none" stroke="#C9CED8" stroke-width="1"/>
<rect data-scene-id="calendar-closed:2026-03-15" data-source-ref="project-calendar" data-purpose="calendar-closed" x="811.168" y="116.8" width="6.971" height="636" opacity="1" fill="none" stroke="#C9CED8" stroke-width="1"/>
<rect data-scene-id="calendar-closed:2026-03-21" data-source-ref="project-calendar" data-purpose="calendar-closed" x="852.992" y="116.8" width="6.971" height="636" opacity="1" fill="none" stroke="#C9CED8" stroke-width="1"/>
<rect data-scene-id="calendar-closed:2026-03-22" data-source-ref="project-calendar" data-purpose="calendar-closed" x="859.963" y="116.8" width="6.971" height="636" opacity="1" fill="none" stroke="#C9CED8" stroke-width="1"/>
<rect data-scene-id="calendar-closed:2026-03-28" data-source-ref="project-calendar" data-purpose="calendar-closed" x="901.787" y="116.8" width="6.971" height="636" opacity="1" fill="none" stroke="#C9CED8" stroke-width="1"/>
<rect data-scene-id="calendar-closed:2026-03-29" data-source-ref="project-calendar" data-purpose="calendar-closed" x="908.757" y="116.8" width="6.971" height="636" opacity="1" fill="none" stroke="#C9CED8" stroke-width="1"/>
<rect data-scene-id="calendar-closed:2026-04-04" data-source-ref="project-calendar" data-purpose="calendar-closed" x="950.581" y="116.8" width="6.971" height="636" opacity="1" fill="none" stroke="#C9CED8" stroke-width="1"/>
<rect data-scene-id="calendar-closed:2026-04-05" data-source-ref="project-calendar" data-purpose="calendar-closed" x="957.552" y="116.8" width="6.971" height="636" opacity="1" fill="none" stroke="#C9CED8" stroke-width="1"/>
<rect data-scene-id="calendar-closed:2026-04-11" data-source-ref="project-calendar" data-purpose="calendar-closed" x="999.376" y="116.8" width="6.971" height="636" opacity="1" fill="none" stroke="#C9CED8" stroke-width="1"/>
<rect data-scene-id="calendar-closed:2026-04-12" data-source-ref="project-calendar" data-purpose="calendar-closed" x="1006.347" y="116.8" width="6.971" height="636" opacity="1" fill="none" stroke="#C9CED8" stroke-width="1"/>
<rect data-scene-id="calendar-closed:2026-04-18" data-source-ref="project-calendar" data-purpose="calendar-closed" x="1048.171" y="116.8" width="6.971" height="636" opacity="1" fill="none" stroke="#C9CED8" stroke-width="1"/>
<rect data-scene-id="calendar-closed:2026-04-19" data-source-ref="project-calendar" data-purpose="calendar-closed" x="1055.141" y="116.8" width="6.971" height="636" opacity="1" fill="none" stroke="#C9CED8" stroke-width="1"/>
<rect data-scene-id="calendar-closed:2026-04-25" data-source-ref="project-calendar" data-purpose="calendar-closed" x="1096.965" y="116.8" width="6.971" height="636" opacity="1" fill="none" stroke="#C9CED8" stroke-width="1"/>
<rect data-scene-id="calendar-closed:2026-04-26" data-source-ref="project-calendar" data-purpose="calendar-closed" x="1103.936" y="116.8" width="6.971" height="636" opacity="1" fill="none" stroke="#C9CED8" stroke-width="1"/>
<rect data-scene-id="calendar-closed:2026-04-29" data-source-ref="project-calendar" data-purpose="calendar-closed" x="1124.848" y="116.8" width="6.971" height="636" opacity="1" fill="none" stroke="#C9CED8" stroke-width="1"/>
<rect data-scene-id="calendar-closed:2026-05-02" data-source-ref="project-calendar" data-purpose="calendar-closed" x="1145.76" y="116.8" width="6.971" height="636" opacity="1" fill="none" stroke="#C9CED8" stroke-width="1"/>
<rect data-scene-id="calendar-closed:2026-05-03" data-source-ref="project-calendar" data-purpose="calendar-closed" x="1152.731" y="116.8" width="6.971" height="636" opacity="1" fill="none" stroke="#C9CED8" stroke-width="1"/>
<rect data-scene-id="calendar-closed:2026-05-04" data-source-ref="project-calendar" data-purpose="calendar-closed" x="1159.701" y="116.8" width="6.971" height="636" opacity="1" fill="none" stroke="#C9CED8" stroke-width="1"/>
<rect data-scene-id="calendar-closed:2026-05-05" data-source-ref="project-calendar" data-purpose="calendar-closed" x="1166.672" y="116.8" width="6.971" height="636" opacity="1" fill="none" stroke="#C9CED8" stroke-width="1"/>
<rect data-scene-id="calendar-closed:2026-05-06" data-source-ref="project-calendar" data-purpose="calendar-closed" x="1173.643" y="116.8" width="6.971" height="636" opacity="1" fill="none" stroke="#C9CED8" stroke-width="1"/>
<rect data-scene-id="calendar-closed:2026-05-09" data-source-ref="project-calendar" data-purpose="calendar-closed" x="1194.555" y="116.8" width="6.971" height="636" opacity="1" fill="none" stroke="#C9CED8" stroke-width="1"/>
<rect data-scene-id="calendar-closed:2026-05-10" data-source-ref="project-calendar" data-purpose="calendar-closed" x="1201.525" y="116.8" width="6.971" height="636" opacity="1" fill="none" stroke="#C9CED8" stroke-width="1"/>
<rect data-scene-id="calendar-closed:2026-05-16" data-source-ref="project-calendar" data-purpose="calendar-closed" x="1243.349" y="116.8" width="6.971" height="636" opacity="1" fill="none" stroke="#C9CED8" stroke-width="1"/>
<rect data-scene-id="calendar-closed:2026-05-17" data-source-ref="project-calendar" data-purpose="calendar-closed" x="1250.32" y="116.8" width="6.971" height="636" opacity="1" fill="none" stroke="#C9CED8" stroke-width="1"/>
<rect data-scene-id="calendar-closed:2026-05-23" data-source-ref="project-calendar" data-purpose="calendar-closed" x="1292.144" y="116.8" width="6.971" height="636" opacity="1" fill="none" stroke="#C9CED8" stroke-width="1"/>
<rect data-scene-id="calendar-closed:2026-05-24" data-source-ref="project-calendar" data-purpose="calendar-closed" x="1299.115" y="116.8" width="6.971" height="636" opacity="1" fill="none" stroke="#C9CED8" stroke-width="1"/>
<rect data-scene-id="calendar-closed:2026-05-30" data-source-ref="project-calendar" data-purpose="calendar-closed" x="1340.939" y="116.8" width="6.971" height="636" opacity="1" fill="none" stroke="#C9CED8" stroke-width="1"/>
<rect data-scene-id="calendar-closed:2026-05-31" data-source-ref="project-calendar" data-purpose="calendar-closed" x="1347.909" y="116.8" width="6.971" height="636" opacity="1" fill="none" stroke="#C9CED8" stroke-width="1"/>
<rect data-scene-id="calendar-closed:2026-06-06" data-source-ref="project-calendar" data-purpose="calendar-closed" x="1389.733" y="116.8" width="6.971" height="636" opacity="1" fill="none" stroke="#C9CED8" stroke-width="1"/>
<rect data-scene-id="calendar-closed:2026-06-07" data-source-ref="project-calendar" data-purpose="calendar-closed" x="1396.704" y="116.8" width="6.971" height="636" opacity="1" fill="none" stroke="#C9CED8" stroke-width="1"/>
<rect data-scene-id="calendar-closed:2026-06-13" data-source-ref="project-calendar" data-purpose="calendar-closed" x="1438.528" y="116.8" width="6.971" height="636" opacity="1" fill="none" stroke="#C9CED8" stroke-width="1"/>
<rect data-scene-id="calendar-closed:2026-06-14" data-source-ref="project-calendar" data-purpose="calendar-closed" x="1445.499" y="116.8" width="6.971" height="636" opacity="1" fill="none" stroke="#C9CED8" stroke-width="1"/>
<rect data-scene-id="calendar-closed:2026-06-20" data-source-ref="project-calendar" data-purpose="calendar-closed" x="1487.323" y="116.8" width="6.971" height="636" opacity="1" fill="none" stroke="#C9CED8" stroke-width="1"/>
<rect data-scene-id="calendar-closed:2026-06-21" data-source-ref="project-calendar" data-purpose="calendar-closed" x="1494.293" y="116.8" width="6.971" height="636" opacity="1" fill="none" stroke="#C9CED8" stroke-width="1"/>
<rect data-scene-id="calendar-closed:2026-06-27" data-source-ref="project-calendar" data-purpose="calendar-closed" x="1536.117" y="116.8" width="6.971" height="636" opacity="1" fill="none" stroke="#C9CED8" stroke-width="1"/>
<rect data-scene-id="calendar-closed:2026-06-28" data-source-ref="project-calendar" data-purpose="calendar-closed" x="1543.088" y="116.8" width="6.971" height="636" opacity="1" fill="none" stroke="#C9CED8" stroke-width="1"/>
<path data-scene-id="axis-rule" data-source-ref="timeline-axis" data-purpose="axis-rule" d="M506.4 116.8L1576 116.8" opacity="1" fill="none" stroke="#172033" stroke-width="1"/>
<path data-scene-id="as-of" data-source-ref="actual-set" data-purpose="as-of" d="M1271.232 116.8L1271.232 752.8" opacity="1" fill="none" stroke="#8D530F" stroke-width="1" stroke-dasharray="4 3"/>
<path data-scene-id="planned:architecture:architecture" data-source-ref="architecture" data-purpose="planned" d="M525.022 160.451L531.269 160.363L537.167 160.491L543.065 160.627L548.964 160.709L554.862 160.678L560.76 160.55L566.658 160.395L572.557 160.281L578.455 160.281L584.353 160.421L590.251 160.622L596.15 160.792L602.018 160.83L602.108 166.8L602.291 172.8L602.465 178.8L602.398 185.15L596.15 185.419L590.251 185.701L584.353 186.002L578.455 186.182L572.557 186.181L566.658 186.14L560.76 186.089L554.862 186.053L548.964 186.028L543.065 185.895L537.167 185.706L531.269 185.545L524.881 185.29L524.717 178.8L524.784 172.8L524.849 166.8Z" opacity="1" fill="#3986E6" stroke="#172033" stroke-width="1"/>
<path data-scene-id="planned:firmware:firmware" data-source-ref="firmware" data-purpose="planned" d="M601.078 231.83L607.963 231.494L613.877 231.638L619.792 231.783L625.706 231.849L631.621 231.917L637.535 232.066L643.45 232.215L649.364 232.284L655.279 232.469L661.193 232.882L667.108 233.297L673.022 233.488L678.937 233.431L684.851 233.302L690.766 233.172L696.68 233.112L702.595 233.226L708.509 233.482L714.424 233.739L720.338 233.859L726.253 233.941L732.167 234.125L738.082 234.311L743.996 234.398L749.911 234.351L755.825 234.244L761.74 234.135L767.654 234.084L773.569 234.062L779.483 234.011L785.398 233.959L791.312 233.935L797.227 233.571L803.141 232.737L809.056 231.891L814.97 231.489L820.885 231.696L826.799 232.175L832.714 232.662L838.628 232.894L844.543 232.821L850.457 232.65L856.372 232.477L862.286 232.393L868.201 232.433L874.115 232.526L880.03 232.621L885.944 232.667L891.859 232.655L897.773 232.627L903.688 232.598L909.602 232.584L915.517 232.692L921.431 232.948L927.346 233.209L933.26 233.336L939.175 233.307L945.089 233.238L951.004 233.167L956.918 233.132L962.833 232.899L968.747 232.345L974.662 231.776L980.576 231.497L986.491 231.597L993.084 232.121L993.156 237.6L993.015 242.4L993.011 247.2L993.16 252L993.1 257.495L986.491 258.056L980.576 258.18L974.662 257.882L968.747 257.225L962.833 256.566L956.918 256.265L951.004 256.525L945.089 257.103L939.175 257.683L933.26 257.949L927.346 257.625L921.431 256.902L915.517 256.176L909.602 255.84L903.688 255.925L897.773 256.117L891.859 256.311L885.944 256.401L880.03 256.624L874.115 257.128L868.201 257.637L862.286 257.874L856.372 257.624L850.457 257.056L844.543 256.482L838.628 256.213L832.714 256.143L826.799 255.984L820.885 255.822L814.97 255.746L809.056 255.666L803.141 255.482L797.227 255.295L791.312 255.207L785.398 255.671L779.483 256.737L773.569 257.82L767.654 258.335L761.74 258.137L755.825 257.676L749.911 257.207L743.996 256.983L738.082 256.943L732.167 256.852L726.253 256.759L720.338 256.714L714.424 256.749L708.509 256.832L702.595 256.916L696.68 256.956L690.766 257.046L684.851 257.256L678.937 257.47L673.022 257.575L667.108 257.289L661.193 256.614L655.279 255.922L649.364 255.585L643.45 255.806L637.535 256.334L631.621 256.876L625.706 257.141L619.792 257.272L613.877 257.583L607.963 257.903L601.157 257.691L600.776 252L600.749 247.2L600.716 242.4L600.688 237.6Z" opacity="1" fill="#3986E6" stroke="#172033" stroke-width="1"/>
<path data-scene-id="planned:silicon-bringup:silicon-bringup" data-source-ref="silicon-bringup" data-purpose="planned" d="M1061.206 303.894L1068.087 303.857L1074.062 304.613L1080.037 305.402L1086.011 305.838L1091.986 305.743L1097.961 305.43L1103.936 305.073L1109.911 304.844L1115.886 304.892L1121.861 305.173L1127.835 305.525L1133.81 305.782L1139.785 305.745L1145.76 305.235L1151.735 304.527L1157.71 303.955L1163.685 303.844L1169.659 304.255L1175.634 304.901L1181.609 305.473L1186.967 305.417L1186.718 310.8L1186.729 316.8L1186.74 322.8L1186.991 328.207L1181.609 328.017L1175.634 328.141L1169.659 328.27L1163.685 328.341L1157.71 328.408L1151.735 328.601L1145.76 328.82L1139.785 328.962L1133.81 328.908L1127.835 328.636L1121.861 328.295L1115.886 328.047L1109.911 328.037L1103.936 328.236L1097.961 328.513L1091.986 328.736L1086.011 328.797L1080.037 328.875L1074.062 328.998L1068.087 329.106L1061.866 329.046L1061.592 322.8L1061.274 316.8L1060.968 310.8Z" opacity="1" fill="#3986E6" stroke="#172033" stroke-width="1"/>
<path data-scene-id="planned:evb-arrival:evb-arrival" data-source-ref="evb-arrival" data-purpose="planned" d="M1041.2 396.8L1053.2 408.8L1041.2 420.8L1029.2 408.8L1041.2 396.8" opacity="1" fill="#3986E6" stroke="#172033" stroke-width="1"/>
<path data-scene-id="planned:performance:performance" data-source-ref="performance" data-purpose="planned" d="M1062.276 468.964L1068.01 468.82L1073.909 468.343L1079.807 467.834L1085.705 467.529L1091.603 467.712L1097.502 468.436L1103.4 469.318L1109.298 469.962L1115.196 470.007L1121.095 469.53L1126.993 468.848L1132.891 468.268L1139.299 468.29L1139.659 474.8L1139.922 480.8L1140.174 486.8L1139.847 493.858L1132.891 494.063L1126.993 493.538L1121.095 492.978L1115.196 492.641L1109.298 492.516L1103.4 492.134L1097.502 491.667L1091.603 491.326L1085.705 491.287L1079.807 491.43L1073.909 491.633L1068.01 491.806L1062.773 492.139L1062.912 486.8L1062.673 480.8L1062.445 474.8Z" opacity="1" fill="#3986E6" stroke="#172033" stroke-width="1"/>
<path data-scene-id="planned:dvt:dvt" data-source-ref="dvt" data-purpose="planned" d="M1214.642 539.975L1221.322 539.793L1227.177 540.151L1233.033 540.522L1238.888 540.725L1244.743 540.835L1250.599 541.139L1256.454 541.483L1262.31 541.7L1268.165 541.738L1274.02 541.827L1279.876 541.935L1285.731 542.013L1291.586 541.981L1297.442 541.731L1303.297 541.393L1309.152 541.127L1315.008 541.069L1320.863 541.081L1326.719 541.1L1332.574 541.115L1338.429 541.107L1344.285 540.762L1350.14 540.167L1355.995 539.611L1362.852 539.799L1363.085 546.8L1362.716 552.8L1362.352 558.8L1362.089 565.038L1355.995 564.931L1350.14 564.472L1344.285 563.994L1338.429 563.733L1332.574 563.8L1326.719 564.01L1320.863 564.247L1315.008 564.396L1309.152 564.513L1303.297 564.931L1297.442 565.444L1291.586 565.809L1285.731 565.871L1279.876 565.927L1274.02 566.004L1268.165 566.064L1262.31 566.025L1256.454 565.492L1250.599 564.687L1244.743 563.995L1238.888 563.786L1233.033 563.932L1227.177 564.184L1221.322 564.419L1215.667 564.599L1215.507 558.8L1215.011 552.8L1214.521 546.8Z" opacity="1" fill="#3986E6" stroke="#172033" stroke-width="1"/>
<path data-scene-id="planned:pvt:pvt" data-source-ref="pvt" data-purpose="planned" d="M1312.972 632.716L1318.926 632.927L1324.796 633.476L1330.666 634.053L1336.536 634.381L1342.406 634.316L1348.276 634.077L1354.146 633.8L1360.016 633.614L1365.886 633.544L1371.756 633.3L1377.626 632.984L1383.496 632.741L1389.366 632.71L1395.236 632.873L1401.107 633.114L1406.977 633.32L1412.847 633.371L1418.717 632.976L1424.949 632.438L1425.763 638.8L1426.036 644.8L1425.729 650.8L1424.947 657.16L1418.717 656.688L1412.847 656.371L1406.977 656.601L1401.107 657.213L1395.236 657.888L1389.366 658.307L1383.496 658.129L1377.626 657.343L1371.756 656.381L1365.886 655.688L1360.016 655.666L1354.146 656.2L1348.276 656.937L1342.406 657.535L1336.536 657.684L1330.666 657.624L1324.796 657.528L1318.926 657.441L1312.626 657.23L1312.535 650.8L1312.702 644.8L1312.865 638.8Z" opacity="1" fill="#3986E6" stroke="#172033" stroke-width="1"/>
<path data-scene-id="planned:ga:ga" data-source-ref="ga" data-purpose="planned" d="M1557.029 704.8L1569.029 716.8L1557.029 728.8L1545.029 716.8L1557.029 704.8" opacity="1" fill="#3986E6" stroke="#172033" stroke-width="1"/>
<path data-scene-id="missing-actual:architecture:architecture" data-source-ref="architecture" data-purpose="missingActual" d="M605.573 164.548L610.448 164.535L615.248 164.509L620.127 164.483L622 164.762L623.55 165.698L624.496 167.244L624.788 169.119L624.773 172.8L624.614 176.469L624.236 178.264L623.289 179.641L621.844 180.396L620.085 180.526L615.248 180.151L610.448 179.925L605.649 179.979L604.055 179.826L602.856 179.192L602.068 178.048L601.715 176.424L601.438 172.8L601.191 169.139L601.382 167.309L602.24 165.792L603.726 164.847Z" opacity="1" fill="#4B5563" stroke="#172033" stroke-width="1"/>
<rect data-scene-id="actual:firmware:firmware" data-source-ref="firmware" data-purpose="actual" x="602.048" y="237.6" width="418.24" height="14.4" rx="3.6" ry="3.6" opacity="1" fill="#269D79" stroke="#172033" stroke-width="1"/>
<rect data-scene-id="actual:silicon-bringup:silicon-bringup" data-source-ref="silicon-bringup" data-purpose="actual" x="1069.083" y="309.6" width="146.384" height="14.4" rx="3.6" ry="3.6" opacity="1" fill="#269D79" stroke="#172033" stroke-width="1"/>
<path data-scene-id="actual:evb-arrival:evb-arrival" data-source-ref="evb-arrival" data-purpose="actual" d="M1059.112 399.8Q1062.112 396.8 1065.112 399.8L1071.112 405.8Q1074.112 408.8 1071.112 411.8L1065.112 417.8Q1062.112 420.8 1059.112 417.8L1053.112 411.8Q1050.112 408.8 1053.112 405.8L1059.112 399.8" opacity="1" fill="#269D79" stroke="#172033" stroke-width="1"/>
<path data-scene-id="actual:performance:performance" data-source-ref="performance" data-purpose="actual" d="M1114.507 473.6L1264.032 473.6L1271.232 480.8L1264.032 488L1114.507 488Q1110.907 488 1110.907 484.4L1110.907 477.2Q1110.907 473.6 1114.507 473.6" opacity="1" fill="#269D79" stroke="#172033" stroke-width="1"/>
<rect data-scene-id="progress-fill:actual:firmware:firmware" data-source-ref="firmware" data-purpose="progress-fill" x="602.048" y="237.6" width="418.24" height="14.4" clip-path="url(#clip-actual:firmware:firmware)" opacity="1" fill="#8D530F" stroke="#172033" stroke-width="1"/>
<rect data-scene-id="progress-fill:actual:silicon-bringup:silicon-bringup" data-source-ref="silicon-bringup" data-purpose="progress-fill" x="1069.083" y="309.6" width="146.384" height="14.4" clip-path="url(#clip-actual:silicon-bringup:silicon-bringup)" opacity="1" fill="#8D530F" stroke="#172033" stroke-width="1"/>
<rect data-scene-id="progress-fill:actual:performance:performance" data-source-ref="performance" data-purpose="progress-fill" x="1110.907" y="473.6" width="64.13" height="14.4" clip-path="url(#clip-actual:performance:performance)" opacity="1" fill="#8D530F" stroke="#172033" stroke-width="1"/>
<text data-scene-id="member-label:dvt:dvt" data-source-ref="dvt" data-purpose="member-label" x="1231.91" y="557" font-family="Noto Sans, sans-serif" font-weight="400" font-size="14" font-variant-numeric="proportional-nums" opacity="1" fill="#000000">DVT Qualification</text>
<text data-scene-id="axis-label:2:0" data-source-ref="timeline-axis" data-purpose="axis-label" x="701.547" y="80.8" font-family="Noto Sans, sans-serif" font-weight="400" font-size="12" font-variant-numeric="proportional-nums" opacity="1" fill="#172033">2026 Q1</text>
<text data-scene-id="axis-label:2:1" data-source-ref="timeline-axis" data-purpose="axis-label" x="1223.663" y="80.8" font-family="Noto Sans, sans-serif" font-weight="400" font-size="12" font-variant-numeric="proportional-nums" opacity="1" fill="#172033">2026 Q2</text>
<text data-scene-id="axis-label:3:0" data-source-ref="timeline-axis" data-purpose="axis-label" x="518.4" y="95.2" font-family="Noto Sans, sans-serif" font-weight="400" font-size="12" font-variant-numeric="proportional-nums" opacity="1" fill="#172033">Feb</text>
<text data-scene-id="axis-label:3:1" data-source-ref="timeline-axis" data-purpose="axis-label" x="713.579" y="95.2" font-family="Noto Sans, sans-serif" font-weight="400" font-size="12" font-variant-numeric="proportional-nums" opacity="1" fill="#172033">Mar</text>
<text data-scene-id="axis-label:3:2" data-source-ref="timeline-axis" data-purpose="axis-label" x="929.669" y="95.2" font-family="Noto Sans, sans-serif" font-weight="400" font-size="12" font-variant-numeric="proportional-nums" opacity="1" fill="#172033">Apr</text>
<text data-scene-id="axis-label:3:3" data-source-ref="timeline-axis" data-purpose="axis-label" x="1138.789" y="95.2" font-family="Noto Sans, sans-serif" font-weight="400" font-size="12" font-variant-numeric="proportional-nums" opacity="1" fill="#172033">May</text>
<text data-scene-id="axis-label:3:4" data-source-ref="timeline-axis" data-purpose="axis-label" x="1354.88" y="95.2" font-family="Noto Sans, sans-serif" font-weight="400" font-size="12" font-variant-numeric="proportional-nums" opacity="1" fill="#172033">Jun</text>
<path data-scene-id="relation:architecture-unlocks-firmware:architecture:architecture:firmware:firmware" data-source-ref="architecture-unlocks-firmware" data-purpose="dependency" d="M602.048 176.8L602.1 180.8L602.104 184.8L602.007 190.133L601.834 195.467L601.72 200.8L601.465 206.133L601.035 211.467L600.629 216.8L600.449 222.133L600.86 227.467L601.279 232.8L601.565 236.8L601.818 240.8L602.048 244.8" opacity="1" fill="none" stroke="#4B5563" stroke-width="1" marker-start="url(#marker-ef661f95c454)" marker-end="url(#marker-0529b66119d9)"/>
<path data-scene-id="relation:firmware-to-evb:firmware:firmware:evb-arrival:evb-arrival" data-source-ref="firmware-to-evb" data-purpose="dependency" d="M996.405 244.8L1002.376 244.526L1008.347 244.526L1014.317 244.811L1020.068 245.02L1020.042 250.874L1020.255 256.948L1020.484 263.022L1020.613 269.096L1020.608 275.17L1020.587 281.244L1020.562 287.319L1020.548 293.393L1020.654 299.467L1020.994 305.541L1021.382 311.615L1021.621 317.689L1021.471 323.763L1020.89 329.837L1020.209 335.911L1019.771 341.985L1019.703 348.059L1019.565 354.133L1019.399 360.207L1019.288 366.281L1019.379 372.356L1019.833 378.43L1020.397 384.504L1020.79 390.578L1020.675 396.652L1020.267 402.726L1020.119 408.969L1024.744 408.985L1029.2 408.8" opacity="1" fill="none" stroke="#4B5563" stroke-width="1" marker-start="url(#marker-ef661f95c454)" marker-end="url(#marker-0529b66119d9)"/>
<path data-scene-id="relation:evb-to-bringup:evb-arrival:evb-arrival:silicon-bringup:silicon-bringup" data-source-ref="evb-to-bringup" data-purpose="dependency" d="M1041.2 392.8L1041.526 386.954L1041.878 381.108L1042.256 375.262L1042.636 369.415L1042.372 363.569L1041.477 357.723L1040.477 351.877L1039.856 346.031L1039.807 340.185L1039.77 334.338L1039.725 328.492L1039.694 322.646L1040.344 315.944L1046.156 316.181L1051.112 316.66L1056.612 316.874L1062.112 316.8" opacity="1" fill="none" stroke="#4B5563" stroke-width="1" marker-start="url(#marker-ef661f95c454)" marker-end="url(#marker-0529b66119d9)"/>
<path data-scene-id="relation:bringup-to-performance:silicon-bringup:silicon-bringup:performance:performance" data-source-ref="bringup-to-performance" data-purpose="dependency" d="M1062.112 320.8L1061.971 324.8L1062.024 328.888L1066.779 328.624L1071.445 328.079L1077.011 327.901L1077.441 334.633L1077.246 340.467L1077.019 346.3L1076.876 352.133L1076.742 357.967L1076.279 363.8L1075.732 369.633L1075.38 375.467L1075.414 381.3L1075.65 387.133L1075.932 392.967L1076.119 398.8L1076.08 404.633L1075.85 410.467L1075.569 416.3L1075.38 422.133L1075.377 427.967L1075.445 433.8L1075.53 439.633L1075.589 445.467L1075.65 451.3L1075.913 457.133L1076.245 462.967L1076.372 469.06L1071.445 469.146L1066.779 468.992L1062.148 468.836L1062.094 472.8L1062.083 476.8L1062.112 480.8" opacity="1" fill="none" stroke="#4B5563" stroke-width="1" marker-start="url(#marker-ef661f95c454)" marker-end="url(#marker-0529b66119d9)"/>
<path data-scene-id="relation:bringup-to-dvt:silicon-bringup:silicon-bringup:dvt:dvt" data-source-ref="bringup-to-dvt" data-purpose="dependency" d="M1191.584 316.8L1196.361 316.995L1201.137 317.027L1205.914 316.852L1210.69 316.557L1215.467 316.365L1221.193 316.597L1226.92 317.055L1232.646 317.503L1238.373 317.706L1244.099 317.49L1249.826 317.01L1255.552 316.518L1261.279 316.267L1267.005 316.442L1272.665 316.867L1272.152 322.544L1271.881 328.287L1272.126 334.031L1272.864 339.774L1273.687 345.518L1274.181 351.262L1274.129 357.005L1273.87 362.749L1273.57 368.492L1273.377 374.236L1273.196 379.979L1272.538 385.723L1271.74 391.467L1271.196 397.21L1271.266 402.954L1271.866 408.697L1272.627 414.441L1273.173 420.185L1273.287 425.928L1273.501 431.672L1273.786 437.415L1274.001 443.159L1274.006 448.903L1273.766 454.646L1273.432 460.39L1273.167 466.133L1273.119 471.877L1273.207 477.621L1273.337 483.364L1273.444 489.108L1273.459 494.851L1273.288 500.595L1273.02 506.338L1272.789 512.082L1272.714 517.826L1272.598 523.569L1272.405 529.313L1272.23 535.056L1272.338 540.406L1267.005 540.419L1261.279 540.738L1255.552 541.038L1249.826 541.158L1244.099 541.366L1238.373 541.78L1232.646 542.187L1226.92 542.373L1221.193 541.706L1215.592 540.926L1215.369 544.8L1215.333 548.8L1215.467 552.8" opacity="1" fill="none" stroke="#4B5563" stroke-width="1" marker-start="url(#marker-ef661f95c454)" marker-end="url(#marker-0529b66119d9)"/>
<path data-scene-id="relation:dvt-to-pvt:dvt:dvt:pvt:pvt" data-source-ref="dvt-to-pvt" data-purpose="dependency" d="M1361.851 556.8L1361.624 560.8L1361.604 564.554L1356.429 564.522L1351.007 564.766L1345.586 564.868L1340.164 564.682L1334.743 564.376L1329.321 564.094L1323.899 563.981L1318.478 563.87L1312.239 563.983L1311.661 570.467L1311.545 576.133L1311.672 581.8L1311.975 587.467L1312.287 593.133L1312.443 598.8L1312.348 604.467L1312.11 610.133L1311.863 615.8L1311.735 621.467L1312.224 627.133L1312.826 632.8L1313.076 636.8L1313.134 640.8L1313.056 644.8" opacity="1" fill="none" stroke="#4B5563" stroke-width="1" marker-start="url(#marker-ef661f95c454)" marker-end="url(#marker-0529b66119d9)"/>
<path data-scene-id="relation:pvt-to-ga:pvt:pvt:ga:ga" data-source-ref="pvt-to-ga" data-purpose="dependency" d="M1424.587 648.8L1424.815 652.8L1424.947 656.8L1424.907 662.255L1424.691 667.709L1424.567 673.164L1424.591 678.618L1424.636 684.073L1424.682 689.527L1424.707 694.982L1424.775 700.436L1424.979 705.891L1425.216 711.345L1425.151 716.236L1430.322 715.996L1436.057 716.101L1441.793 716.242L1447.528 716.35L1453.263 716.423L1458.999 716.849L1464.734 717.462L1470.47 717.963L1476.205 718.049L1481.94 717.54L1487.676 716.746L1493.411 716.056L1499.146 715.846L1504.882 715.968L1510.617 716.179L1516.353 716.373L1522.088 716.454L1527.823 716.406L1533.559 716.365L1539.294 716.498L1545.029 716.8" opacity="1" fill="none" stroke="#4B5563" stroke-width="1" marker-start="url(#marker-ef661f95c454)" marker-end="url(#marker-0529b66119d9)"/>
<text data-scene-id="title" data-source-ref="title" data-purpose="title-text" x="514.112" y="52.056" font-family="Noto Sans, sans-serif" font-weight="400" font-size="24" font-variant-numeric="proportional-nums" opacity="1" fill="#172033">Controller Z — Silicon Bring-up to Mass Production</text>
<text data-scene-id="column:Workstream" data-source-ref="view:tableColumns" data-purpose="table-column-label" x="24" y="82.8" font-family="Noto Sans, sans-serif" font-weight="400" font-size="14" font-variant-numeric="proportional-nums" opacity="1" fill="#172033">Workstream</text>
<text data-scene-id="cell:architecture:Workstream" data-source-ref="architecture" data-purpose="table-cell" x="24" y="177" font-family="Noto Sans, sans-serif" font-weight="400" font-size="14" font-variant-numeric="proportional-nums" opacity="1" fill="#172033">Architecture Freeze</text>
<text data-scene-id="cell:firmware:Workstream" data-source-ref="firmware" data-purpose="table-cell" x="24" y="249" font-family="Noto Sans, sans-serif" font-weight="400" font-size="14" font-variant-numeric="proportional-nums" opacity="1" fill="#172033">FW Feature Complete</text>
<text data-scene-id="cell:silicon-bringup:Workstream" data-source-ref="silicon-bringup" data-purpose="table-cell" x="24" y="321" font-family="Noto Sans, sans-serif" font-weight="400" font-size="14" font-variant-numeric="proportional-nums" opacity="1" fill="#172033">Silicon Bring-up</text>
<text data-scene-id="cell:evb-arrival:Workstream" data-source-ref="evb-arrival" data-purpose="table-cell" x="24" y="413" font-family="Noto Sans, sans-serif" font-weight="400" font-size="14" font-variant-numeric="proportional-nums" opacity="1" fill="#172033">EVB Arrival</text>
<text data-scene-id="cell:performance:Workstream" data-source-ref="performance" data-purpose="table-cell" x="24" y="485" font-family="Noto Sans, sans-serif" font-weight="400" font-size="14" font-variant-numeric="proportional-nums" opacity="1" fill="#172033">Performance Characterization</text>
<text data-scene-id="cell:dvt:Workstream" data-source-ref="dvt" data-purpose="table-cell" x="24" y="557" font-family="Noto Sans, sans-serif" font-weight="400" font-size="14" font-variant-numeric="proportional-nums" opacity="1" fill="#172033">DVT Qualification</text>
<text data-scene-id="cell:pvt:Workstream" data-source-ref="pvt" data-purpose="table-cell" x="24" y="649" font-family="Noto Sans, sans-serif" font-weight="400" font-size="14" font-variant-numeric="proportional-nums" opacity="1" fill="#172033">PVT and Factory Validation</text>
<text data-scene-id="cell:ga:Workstream" data-source-ref="ga" data-purpose="table-cell" x="24" y="721" font-family="Noto Sans, sans-serif" font-weight="400" font-size="14" font-variant-numeric="proportional-nums" opacity="1" fill="#172033">General Availability</text>
<text data-scene-id="group-header:fw-team" data-source-ref="fw-team" data-purpose="group-header" x="24" y="130.8" font-family="Noto Sans, sans-serif" font-weight="400" font-size="14" font-variant-numeric="proportional-nums" opacity="1" fill="#172033">Firmware</text>
<text data-scene-id="group-header:validation-team" data-source-ref="validation-team" data-purpose="group-header" x="24" y="366.8" font-family="Noto Sans, sans-serif" font-weight="400" font-size="14" font-variant-numeric="proportional-nums" opacity="1" fill="#172033">System Validation</text>
<text data-scene-id="group-header:factory-team" data-source-ref="factory-team" data-purpose="group-header" x="24" y="602.8" font-family="Noto Sans, sans-serif" font-weight="400" font-size="14" font-variant-numeric="proportional-nums" opacity="1" fill="#172033">Product Engineering</text>
<text data-scene-id="member-label:architecture:architecture" data-source-ref="architecture" data-purpose="member-label" x="507.848" y="151.7" font-family="Noto Sans, sans-serif" font-weight="400" font-size="14" font-variant-numeric="proportional-nums" opacity="1" fill="#172033">Architecture Freeze</text>
<text data-scene-id="member-label:firmware:firmware" data-source-ref="firmware" data-purpose="member-label" x="726.506" y="223.7" font-family="Noto Sans, sans-serif" font-weight="400" font-size="14" font-variant-numeric="proportional-nums" opacity="1" fill="#172033">FW Feature Complete</text>
<text data-scene-id="variance:firmware:firmware" data-source-ref="firmware" data-purpose="finish-delta" x="1023.788" y="249" font-family="Noto Sans, sans-serif" font-weight="400" font-size="14" font-variant-numeric="proportional-nums" opacity="1" fill="#8D530F">+4d</text>
<text data-scene-id="member-label:silicon-bringup:silicon-bringup" data-source-ref="silicon-bringup" data-purpose="member-label" x="1073.083" y="295.7" font-family="Noto Sans, sans-serif" font-weight="400" font-size="14" font-variant-numeric="proportional-nums" opacity="1" fill="#172033">Silicon Bring-up</text>
<text data-scene-id="variance:silicon-bringup:silicon-bringup" data-source-ref="silicon-bringup" data-purpose="finish-delta" x="1129.962" y="349.5" font-family="Noto Sans, sans-serif" font-weight="400" font-size="14" font-variant-numeric="proportional-nums" opacity="1" fill="#8D530F">+4d</text>
<text data-scene-id="member-label:evb-arrival:evb-arrival" data-source-ref="evb-arrival" data-purpose="member-label" x="941.388" y="387.7" font-family="Noto Sans, sans-serif" font-weight="400" font-size="14" font-variant-numeric="proportional-nums" opacity="1" fill="#172033">EVB Arrival</text>
<text data-scene-id="member-label:performance:performance" data-source-ref="performance" data-purpose="member-label" x="873.779" y="459.7" font-family="Noto Sans, sans-serif" font-weight="400" font-size="14" font-variant-numeric="proportional-nums" opacity="1" fill="#172033">Performance Characterization</text>
<text data-scene-id="member-label:pvt:pvt" data-source-ref="pvt" data-purpose="member-label" x="1321.468" y="623.7" font-family="Noto Sans, sans-serif" font-weight="400" font-size="14" font-variant-numeric="proportional-nums" opacity="1" fill="#172033">PVT and Factory Validation</text>
<text data-scene-id="member-label:ga:ga" data-source-ref="ga" data-purpose="member-label" x="1445.952" y="695.7" font-family="Noto Sans, sans-serif" font-weight="400" font-size="14" font-variant-numeric="proportional-nums" opacity="1" fill="#172033">General Availability</text>
<text data-scene-id="as-of-label" data-source-ref="actual-set" data-purpose="as-of-label" x="1274.732" y="134.3" font-family="Noto Sans, sans-serif" font-weight="400" font-size="14" font-variant-numeric="proportional-nums" opacity="1" fill="#172033">As of May 20, 2026</text>
<text data-scene-id="group-detail:fw-team" data-source-ref="fw-team" data-purpose="group-detail" x="24" y="850.8" font-family="Noto Sans, sans-serif" font-weight="400" font-size="14" font-variant-numeric="proportional-nums" opacity="1" fill="#172033"><tspan x="24" dy="0">Firmware: Architecture,</tspan><tspan x="24" dy="19.6">firmware delivery, and</tspan><tspan x="24" dy="19.6">silicon bring-up.</tspan></text>
<text data-scene-id="group-detail:validation-team" data-source-ref="validation-team" data-purpose="group-detail" x="24" y="909.6" font-family="Noto Sans, sans-serif" font-weight="400" font-size="14" font-variant-numeric="proportional-nums" opacity="1" fill="#172033"><tspan x="24" dy="0">System Validation:</tspan><tspan x="24" dy="19.6">Hardware readiness,</tspan><tspan x="24" dy="19.6">performance, and</tspan><tspan x="24" dy="19.6">qualification evidence.</tspan></text>
<text data-scene-id="group-detail:factory-team" data-source-ref="factory-team" data-purpose="group-detail" x="24" y="988" font-family="Noto Sans, sans-serif" font-weight="400" font-size="14" font-variant-numeric="proportional-nums" opacity="1" fill="#172033"><tspan x="24" dy="0">Product Engineering:</tspan><tspan x="24" dy="19.6">Production validation and</tspan><tspan x="24" dy="19.6">release readiness.</tspan></text>
<text data-scene-id="milestone:evb-arrival" data-source-ref="evb-arrival" data-purpose="milestone-digest-entry" x="327.779" y="850.8" font-family="Noto Sans, sans-serif" font-weight="400" font-size="14" font-variant-numeric="proportional-nums" opacity="1" fill="#172033">EVB Arrival — 2026-04-17</text>
<text data-scene-id="milestone:ga" data-source-ref="ga" data-purpose="milestone-digest-entry" x="327.779" y="870.4" font-family="Noto Sans, sans-serif" font-weight="400" font-size="14" font-variant-numeric="proportional-nums" opacity="1" fill="#172033"><tspan x="327.779" dy="0">General Availability —</tspan><tspan x="327.779" dy="19.6">2026-06-30</tspan></text>
<text data-scene-id="relation-label:architecture-unlocks-firmware:architecture:architecture:firmware:firmware" data-source-ref="architecture-unlocks-firmware" data-purpose="relation-label" x="530.424" y="213" font-family="Noto Sans, sans-serif" font-weight="400" font-size="14" font-variant-numeric="proportional-nums" opacity="1" fill="#172033">end-&gt;start</text>
<text data-scene-id="relation-label:firmware-to-evb:firmware:firmware:evb-arrival:evb-arrival" data-source-ref="firmware-to-evb" data-purpose="relation-label" x="926.936" y="331" font-family="Noto Sans, sans-serif" font-weight="400" font-size="14" font-variant-numeric="proportional-nums" opacity="1" fill="#172033">end-&gt;at +5wd</text>
<text data-scene-id="relation-label:bringup-to-performance:silicon-bringup:silicon-bringup:performance:performance" data-source-ref="bringup-to-performance" data-purpose="relation-label" x="1080.612" y="403" font-family="Noto Sans, sans-serif" font-weight="400" font-size="14" font-variant-numeric="proportional-nums" opacity="1" fill="#172033">start-&gt;start</text>
<text data-scene-id="relation-label:bringup-to-dvt:silicon-bringup:silicon-bringup:dvt:dvt" data-source-ref="bringup-to-dvt" data-purpose="relation-label" x="1219.654" y="307.7" font-family="Noto Sans, sans-serif" font-weight="400" font-size="14" font-variant-numeric="proportional-nums" opacity="1" fill="#172033">end-&gt;start +2wd</text>
<text data-scene-id="relation-label:dvt-to-pvt:dvt:dvt:pvt:pvt" data-source-ref="dvt-to-pvt" data-purpose="relation-label" x="1096.21" y="603" font-family="Noto Sans, sans-serif" font-weight="400" font-size="14" font-variant-numeric="proportional-nums" opacity="1" fill="#172033">end-&gt;start -5wd [engineering-jp]</text>
<text data-scene-id="relation-label:pvt-to-ga:pvt:pvt:ga:ga" data-source-ref="pvt-to-ga" data-purpose="relation-label" x="1459.517" y="735.3" font-family="Noto Sans, sans-serif" font-weight="400" font-size="14" font-variant-numeric="proportional-nums" opacity="1" fill="#172033">end-&gt;at</text>
<text data-scene-id="legend:planned" data-source-ref="planned" data-purpose="legend-label" x="949.738" y="854.938" font-family="Noto Sans, sans-serif" font-weight="400" font-size="12" font-variant-numeric="proportional-nums" opacity="1" fill="#172033">Planned</text>
<text data-scene-id="legend:actual" data-source-ref="actual" data-purpose="legend-label" x="949.738" y="880.138" font-family="Noto Sans, sans-serif" font-weight="400" font-size="12" font-variant-numeric="proportional-nums" opacity="1" fill="#172033">Actual</text>
<text data-scene-id="note:evb-risk" data-source-ref="evb-risk" data-purpose="project-note" x="1239.118" y="850.8" font-family="Noto Sans, sans-serif" font-weight="400" font-size="14" font-variant-numeric="proportional-nums" opacity="1" fill="#172033">Board arrival gates first silicon boot.</text>
<text data-scene-id="note:pvt-exit" data-source-ref="pvt-exit" data-purpose="project-note" x="1239.118" y="870.4" font-family="Noto Sans, sans-serif" font-weight="400" font-size="14" font-variant-numeric="proportional-nums" opacity="1" fill="#172033">Qualification closure precedes the release decision.</text>
</svg>
